<svg width="280" height="280" viewBox="0 0 280 280" xmlns="http://www.w3.org/2000/svg">
<defs>
<clipPath id="bc"><rect x="20" y="20" width="240" height="240" rx="52"/></clipPath>
</defs>

<rect x="20" y="20" width="240" height="240" rx="52" fill="#1C2B4A"/>

<g clip-path="url(#bc)">
<circle cx="72"  cy="95"  r="1.8" fill="rgba(255,255,255,0.11)"/>
<circle cx="108" cy="95"  r="1.8" fill="rgba(255,255,255,0.11)"/>
<circle cx="144" cy="95"  r="1.8" fill="rgba(255,255,255,0.11)"/>
<circle cx="180" cy="95"  r="1.8" fill="rgba(255,255,255,0.11)"/>
<circle cx="216" cy="95"  r="1.8" fill="rgba(255,255,255,0.11)"/>
<circle cx="72"  cy="127" r="1.8" fill="rgba(255,255,255,0.11)"/>
<circle cx="108" cy="127" r="1.8" fill="rgba(255,255,255,0.11)"/>
<circle cx="144" cy="127" r="1.8" fill="rgba(255,255,255,0.11)"/>
<circle cx="180" cy="127" r="1.8" fill="rgba(255,255,255,0.11)"/>
<circle cx="216" cy="127" r="1.8" fill="rgba(255,255,255,0.11)"/>
<circle cx="72"  cy="159" r="1.8" fill="rgba(255,255,255,0.11)"/>
<circle cx="108" cy="159" r="1.8" fill="rgba(255,255,255,0.11)"/>
<circle cx="144" cy="159" r="1.8" fill="rgba(255,255,255,0.11)"/>
<circle cx="180" cy="159" r="1.8" fill="rgba(255,255,255,0.11)"/>
<circle cx="216" cy="159" r="1.8" fill="rgba(255,255,255,0.11)"/>
<circle cx="72"  cy="191" r="1.8" fill="rgba(255,255,255,0.11)"/>
<circle cx="108" cy="191" r="1.8" fill="rgba(255,255,255,0.11)"/>
<circle cx="144" cy="191" r="1.8" fill="rgba(255,255,255,0.11)"/>
<circle cx="180" cy="191" r="1.8" fill="rgba(255,255,255,0.11)"/>
<circle cx="216" cy="191" r="1.8" fill="rgba(255,255,255,0.11)"/>

<path d="M 72 220 C 100 200 118 190 139 180 C 158 170 168 148 184 138 C 200 128 212 100 228 88 L 228 240 L 72 240 Z" fill="#13C996" opacity="0.09"/>

<path d="M 72 220 C 100 200 118 190 139 180 C 158 170 168 148 184 138 C 200 128 212 100 228 88" fill="none" stroke="#13C996" stroke-width="3" stroke-linecap="round"/>

<circle cx="72"  cy="220" r="10" fill="#13C996"/>
<path d="M67.5 220 L70.5 224 L77.5 215" fill="none" stroke="white" stroke-width="2.2" stroke-linecap="round" stroke-linejoin="round"/>

<circle cx="139" cy="180" r="10" fill="#13C996"/>
<path d="M134.5 180 L137.5 184 L144.5 175" fill="none" stroke="white" stroke-width="2.2" stroke-linecap="round" stroke-linejoin="round"/>

<circle cx="184" cy="138" r="10" fill="#13C996"/>
<path d="M179.5 138 L182.5 142 L189.5 133" fill="none" stroke="white" stroke-width="2.2" stroke-linecap="round" stroke-linejoin="round"/>

<circle cx="228" cy="88" r="22" fill="none" stroke="#13C996" stroke-width="1.5" opacity="0.28"/>
<circle cx="228" cy="88" r="14" fill="#13C996"/>
<path d="M222.5 88 L226 93.5 L235 81" fill="none" stroke="white" stroke-width="2.8" stroke-linecap="round" stroke-linejoin="round"/>
</g>
</svg>